<svg width="24" height="24" viewBox="0 0 24 24" xmlns="http://www.w3.org/2000/svg" aria-hidden="true">
  <path
    fill="#A8A8A8"
    d="M12 2C6.477 2 2 6.588 2 12.248c0 4.528 2.865 8.37 6.839 9.725.5.095.683-.223.683-.495 0-.245-.009-.894-.014-1.754-2.782.618-3.369-1.39-3.369-1.39-.455-1.182-1.11-1.497-1.11-1.497-.908-.638.069-.625.069-.625 1.004.073 1.532 1.055 1.532 1.055.893 1.565 2.341 1.113 2.91.851.091-.662.35-1.114.637-1.37-2.221-.259-4.555-1.138-4.555-5.063 0-1.118.389-2.033 1.028-2.75-.103-.259-.446-1.302.098-2.715 0 0 .84-.274 2.75 1.05A9.32 9.32 0 0 1 12 6.84a9.3 9.3 0 0 1 2.503.35c1.909-1.325 2.748-1.05 2.748-1.05.546 1.413.203 2.456.1 2.715.64.717 1.027 1.632 1.027 2.75 0 3.935-2.337 4.801-4.566 5.055.36.32.68.95.68 1.916 0 1.383-.012 2.498-.012 2.837 0 .275.18.595.688.494C19.138 20.614 22 16.774 22 12.248 22 6.588 17.523 2 12 2Z"
  />
</svg>
